<?xml version="1.0" encoding="UTF-8" standalone="no"?>
<svg
   xmlns:dc="http://purl.org/dc/elements/1.1/"
   xmlns:cc="http://creativecommons.org/ns#"
   xmlns:rdf="http://www.w3.org/1999/02/22-rdf-syntax-ns#"
   xmlns:svg="http://www.w3.org/2000/svg"
   xmlns="http://www.w3.org/2000/svg"
   xmlns:sodipodi="http://sodipodi.sourceforge.net/DTD/sodipodi-0.dtd"
   xmlns:inkscape="http://www.inkscape.org/namespaces/inkscape"
   viewBox="0 0 32.880001 25.2"
   version="1.1"
   id="svg3809"
   sodipodi:docname="Logo Beagle (2).svg"
   width="32.880001"
   height="25.200001"
   inkscape:version="0.92.5 (2060ec1f9f, 2020-04-08)">
  <metadata
     id="metadata3813">
    <rdf:RDF>
      <cc:Work
         rdf:about="">
        <dc:format>image/svg+xml</dc:format>
        <dc:type
           rdf:resource="http://purl.org/dc/dcmitype/StillImage" />
        <dc:title>Element 2Logo Beagle </dc:title>
      </cc:Work>
    </rdf:RDF>
  </metadata>
  <sodipodi:namedview
     pagecolor="#ffffff"
     bordercolor="#666666"
     borderopacity="1"
     objecttolerance="10"
     gridtolerance="10"
     guidetolerance="10"
     inkscape:pageopacity="0"
     inkscape:pageshadow="2"
     inkscape:window-width="1848"
     inkscape:window-height="1016"
     id="namedview3811"
     showgrid="false"
     inkscape:zoom="13.02649"
     inkscape:cx="55.116527"
     inkscape:cy="7.5999996"
     inkscape:window-x="72"
     inkscape:window-y="27"
     inkscape:window-maximized="1"
     inkscape:current-layer="Ebene_1-2" />
  <defs
     id="defs3785">
    <style
       id="style3783">.cls-1{fill:#ff4236;}</style>
  </defs>
  <title
     id="title3787">Element 2Logo Beagle </title>
  <g
     id="Ebene_2"
     data-name="Ebene 2">
    <g
       id="Ebene_1-2"
       data-name="Ebene 1">
      <path
         class="cls-1"
         d="m 18,6.48 a 10.46,10.46 0 0 1 2.32,-0.94 9.66,9.66 0 0 1 2.56,-0.34 9.8,9.8 0 0 1 3.9,0.78 10,10 0 0 1 5.32,5.32 10.14,10.14 0 0 1 0,7.8 10,10 0 0 1 -5.32,5.32 10.14,10.14 0 0 1 -7.8,0 10,10 0 0 1 -5.32,-5.32 9.8,9.8 0 0 1 -0.78,-3.9 V 0 H 18 Z m 4.88,13.6 a 4.88,4.88 0 1 0 0,-9.76 4.69,4.69 0 0 0 -1.88,0.38 5.3,5.3 0 0 0 -1.54,1 4.51,4.51 0 0 0 -1,1.48 A 5,5 0 0 0 18,15 v 0.2 a 4.86,4.86 0 0 0 4.88,4.88 z"
         id="path3789"
         inkscape:connector-curvature="0"
         style="fill:#ff4236" />
      <path
         class="cls-1"
         d="m 51,23.12 a 9.78,9.78 0 0 1 -2.84,1.54 9.94,9.94 0 0 1 -3.28,0.54 9.78,9.78 0 0 1 -3.9,-0.78 10,10 0 0 1 -5.32,-5.32 10.14,10.14 0 0 1 0,-7.8 A 10,10 0 0 1 41,6 a 10.14,10.14 0 0 1 7.8,0 10,10 0 0 1 5.32,5.32 9.8,9.8 0 0 1 0.78,3.9 9.4,9.4 0 0 1 -0.08,1.24 c -0.05,0.4 -0.12,0.79 -0.2,1.16 h -14 a 5,5 0 0 0 1.76,1.8 4.69,4.69 0 0 0 2.48,0.68 4.76,4.76 0 0 0 2.84,-0.92 z m -6.12,-12.8 a 4.56,4.56 0 0 0 -2.32,0.6 5.36,5.36 0 0 0 -1.72,1.56 h 8.08 a 5.37,5.37 0 0 0 -1.72,-1.56 4.56,4.56 0 0 0 -2.35,-0.6 z"
         id="path3791"
         inkscape:connector-curvature="0"
         style="fill:#ff4236" />
      <path
         class="cls-1"
         d="m 60.73,7.28 a 9.77,9.77 0 0 1 2.84,-1.54 10,10 0 0 1 3.28,-0.54 9.8,9.8 0 0 1 3.9,0.78 10,10 0 0 1 5.32,5.32 10.14,10.14 0 0 1 0,7.8 10,10 0 0 1 -5.32,5.32 10.14,10.14 0 0 1 -7.8,0 10,10 0 0 1 -5.32,-5.32 9.8,9.8 0 0 1 -0.78,-3.9 9.33,9.33 0 0 1 0.08,-1.2 q 0.08,-0.6 0.2,-1.16 h 14 A 5,5 0 0 0 69.33,11 4.69,4.69 0 0 0 66.85,10.32 4.76,4.76 0 0 0 64.01,11.24 Z m 6.12,12.8 a 4.68,4.68 0 0 0 2.32,-0.58 5,5 0 0 0 1.72,-1.58 h -8.08 a 5,5 0 0 0 1.72,1.58 4.68,4.68 0 0 0 2.32,0.58 z"
         id="path3793"
         inkscape:connector-curvature="0"
         style="fill:#ff4236" />
      <path
         class="cls-1"
         d="M 88.85,35.2 A 9.78,9.78 0 0 1 84.95,34.42 10,10 0 0 1 79.63,29.1 9.8,9.8 0 0 1 78.85,25.2 H 84 a 4.88,4.88 0 1 0 9.76,0 V 24 a 9.91,9.91 0 0 1 -4.88,1.24 9.78,9.78 0 0 1 -3.9,-0.78 10,10 0 0 1 -5.32,-5.32 10.14,10.14 0 0 1 0,-7.8 A 10,10 0 0 1 85,6 a 10.14,10.14 0 0 1 7.8,0 10,10 0 0 1 5.32,5.32 9.8,9.8 0 0 1 0.78,3.9 v 10 a 9.8,9.8 0 0 1 -0.78,3.9 10,10 0 0 1 -5.32,5.32 9.79,9.79 0 0 1 -3.95,0.76 z m 0,-15.12 a 4.88,4.88 0 0 0 3.38,-1.36 5,5 0 0 0 1.06,-1.5 4.75,4.75 0 0 0 0.44,-1.82 v -0.2 a 4.89,4.89 0 1 0 -4.88,4.88 z"
         id="path3795"
         inkscape:connector-curvature="0"
         style="fill:#ff4236" />
      <path
         class="cls-1"
         d="m 106,25.2 h -5.12 V 0 H 106 Z"
         id="path3797"
         inkscape:connector-curvature="0"
         style="fill:#ff4236" />
      <path
         class="cls-1"
         d="m 124.09,23.12 a 9.76,9.76 0 0 1 -2.84,1.54 9.94,9.94 0 0 1 -3.28,0.54 9.78,9.78 0 0 1 -3.9,-0.78 10,10 0 0 1 -5.32,-5.32 10.14,10.14 0 0 1 0,-7.8 10,10 0 0 1 5.32,-5.3 10.14,10.14 0 0 1 7.8,0 10,10 0 0 1 5.32,5.32 9.79,9.79 0 0 1 0.78,3.9 9.49,9.49 0 0 1 -0.08,1.24 c -0.05,0.4 -0.12,0.79 -0.2,1.16 h -14 a 5,5 0 0 0 1.76,1.8 4.69,4.69 0 0 0 2.48,0.68 4.76,4.76 0 0 0 2.84,-0.92 z M 118,10.32 a 4.56,4.56 0 0 0 -2.32,0.6 5.36,5.36 0 0 0 -1.72,1.56 H 122 a 5.37,5.37 0 0 0 -1.72,-1.56 4.56,4.56 0 0 0 -2.28,-0.6 z"
         id="path3799"
         inkscape:connector-curvature="0"
         style="fill:#ff4236" />
      <path
         class="cls-1"
         d="m 23.11,5.22 v 5.09 H 0 V 5.22 Z"
         id="path3801"
         inkscape:connector-curvature="0"
         style="fill:#ff4236" />
      <path
         class="cls-1"
         d="m 17.55,12.76 v 5.12 H 5 v -5.12 z"
         id="path3803"
         inkscape:connector-curvature="0"
         style="fill:#ff4236" />
      <path
         class="cls-1"
         d="m 23.19,20.1 v 5.09 H 10.14 V 20.1 Z"
         id="path3805"
         inkscape:connector-curvature="0"
         style="fill:#ff4236" />
    </g>
  </g>
</svg>
