<?xml version="1.0" standalone="no"?>
<!DOCTYPE svg PUBLIC "-//W3C//DTD SVG 20010904//EN"
 "http://www.w3.org/TR/2001/REC-SVG-20010904/DTD/svg10.dtd">
<svg version="1.0" xmlns="http://www.w3.org/2000/svg"
 width="1056.000000pt" height="1056.000000pt" viewBox="0 0 1056.000000 1056.000000"
 preserveAspectRatio="xMidYMid meet">
<metadata>
Created by potrace 1.14, written by Peter Selinger 2001-2017
</metadata>
<g transform="translate(0.000000,1056.000000) scale(0.100000,-0.100000)"
fill="#000000" stroke="none">
<path d="M4142 8493 c0 -456 -1 -833 -1 -838 -1 -7 -695 -10 -2063 -10 l-2063
0 -3 -817 -2 -818 2065 0 c1645 0 2065 -3 2066 -12 5 -76 3 -747 -2 -758 -7
-14 -140 -16 -1263 -15 -829 0 -1257 -3 -1259 -10 -6 -17 -2 -1623 3 -1629 4
-3 87 -5 185 -5 99 0 189 0 200 0 11 -1 38 -1 60 0 22 0 46 0 53 0 6 0 23 -1
37 -1 14 0 32 0 40 0 8 0 38 0 65 0 28 0 58 0 68 0 9 0 35 0 57 1 22 0 46 0
53 0 6 0 23 -1 37 -1 14 0 32 0 40 0 8 0 38 0 65 0 28 0 58 0 68 0 9 0 35 0
57 1 22 0 46 0 53 0 6 0 23 -1 37 -1 14 0 32 0 40 0 8 0 38 0 65 0 28 0 58 0
68 0 9 0 35 0 57 1 22 0 46 0 53 0 14 -1 55 -1 80 0 9 0 260 0 557 0 l541 -1
28 -92 c52 -173 102 -295 198 -485 36 -73 63 -133 60 -134 -4 -1 -293 -2 -642
-2 l-635 -2 -1 -800 c-1 -440 0 -807 2 -816 4 -14 201 -16 2177 -13 1194 1
2195 4 2222 8 92 10 151 19 225 32 42 8 53 10 104 18 21 3 46 8 56 11 10 3 27
7 37 9 51 10 219 57 263 73 8 4 20 7 25 9 14 3 154 54 185 67 14 6 27 11 30
11 3 1 30 13 62 28 31 14 66 29 77 33 12 3 21 11 21 17 0 6 3 9 6 5 4 -3 36
10 73 30 155 84 196 107 201 113 3 4 28 20 55 35 28 16 52 33 53 37 2 4 8 8
14 8 5 0 15 6 22 13 8 6 24 19 36 27 37 25 212 161 255 199 63 56 275 271 327
331 123 143 270 355 365 525 128 230 268 585 308 788 2 10 6 26 9 35 3 9 7 28
10 42 3 14 7 34 9 45 2 11 7 36 11 55 3 19 8 46 11 60 8 38 18 121 32 245 12
114 6 660 -7 660 -1 0 -3 18 -5 40 -5 43 -13 97 -20 129 -2 12 -7 37 -9 56
-21 145 -120 487 -182 627 -8 18 -21 50 -30 70 -26 60 -127 268 -133 273 -3 3
-17 25 -30 50 -26 48 -170 272 -180 280 -4 3 -25 30 -46 60 -22 30 -47 62 -55
71 -8 8 -33 37 -55 65 -50 62 -291 303 -370 370 -84 71 -239 188 -272 205 -16
8 -30 16 -33 19 -9 10 -64 47 -102 69 -21 11 -55 31 -75 43 -50 29 -277 145
-283 145 -3 0 -27 10 -55 22 -72 32 -292 111 -309 111 -8 0 -18 5 -21 10 -4 6
-12 9 -18 8 -10 -2 -76 13 -127 29 -8 2 -16 4 -17 4 -2 1 -29 7 -61 14 -90 21
-150 32 -212 40 -14 1 -41 5 -60 9 -88 16 -222 19 -1080 20 l-914 1 -1 838 0
837 -821 0 -821 0 -1 -827z m3393 -2497 c28 -3 73 -10 100 -16 28 -5 59 -11
70 -13 11 -1 25 -6 31 -9 6 -4 24 -10 40 -12 103 -19 281 -99 439 -199 28 -17
52 -34 55 -37 3 -3 35 -29 72 -58 77 -61 248 -239 248 -259 0 -7 4 -13 9 -13
10 0 95 -129 138 -210 59 -110 132 -315 148 -415 2 -11 9 -54 15 -95 36 -221
6 -537 -70 -735 -5 -11 -16 -40 -25 -64 -22 -61 -88 -195 -97 -199 -5 -2 -8
-10 -8 -18 0 -8 -3 -14 -8 -14 -4 0 -13 -13 -20 -28 -6 -16 -20 -37 -31 -48
-10 -11 -24 -31 -31 -44 -34 -63 -213 -242 -330 -329 -77 -58 -266 -163 -365
-203 -48 -19 -179 -59 -208 -63 -18 -2 -33 -5 -34 -6 -2 -1 -7 -3 -13 -4 -5
-1 -11 -3 -12 -4 -3 -2 -12 -4 -113 -16 -90 -11 -260 -13 -272 -2 -9 6 -13 6
-13 -2 0 -7 -3 -10 -7 -8 -5 3 -37 8 -73 11 -100 11 -205 34 -319 73 -114 38
-284 118 -337 158 -18 14 -36 25 -39 25 -4 0 -19 10 -34 23 -15 12 -40 31 -57
42 -27 18 -235 224 -259 256 -6 8 -26 37 -45 64 -19 28 -38 52 -42 53 -5 2 -8
10 -8 18 0 8 -3 14 -8 14 -4 0 -13 15 -21 33 -8 17 -17 34 -21 37 -20 16 -130
286 -130 319 0 11 -4 22 -9 26 -6 3 -10 13 -10 23 0 9 -1 24 -4 32 -3 14 -8
37 -23 115 -24 129 -23 362 2 480 3 17 7 39 8 50 5 37 64 243 76 260 3 6 15
33 25 60 78 211 259 466 415 584 19 14 42 33 51 41 8 8 26 22 39 30 12 8 29
21 36 28 8 7 14 10 14 5 0 -4 4 -3 8 3 16 26 317 178 371 189 10 2 39 10 65
19 25 9 60 18 78 21 17 3 34 7 37 9 7 4 92 17 139 21 18 2 35 5 37 7 6 5 272
1 330 -6z"/>
</g>
</svg>
